<svg xmlns="http://www.w3.org/2000/svg" data-name="Layer 1" viewBox="0 0 29 29">
    <path fill="#ce85d6" d="M14.5 2A12.5 12.5 0 1 0 27 14.5 12.514 12.514 0 0 0 14.5 2Zm0 23A10.5 10.5 0 1 1 25 14.5 10.512 10.512 0 0 1 14.5 25Zm0-15a2 2 0 1 0-2-2 2 2 0 0 0 2 2Zm5.356.01-5.232.762a.861.861 0 0 1-.248 0l-5.232-.762a1 1 0 0 0-.288 1.98l3.22.468a.246.246 0 0 1 .211.244v3.859l-.085.394-2.066 4.541a1 1 0 0 0 1.728 1.008l2.394-4.983a.277.277 0 0 1 .5.001l2.378 4.982a1 1 0 0 0 1.728-1.008l-2.098-4.613-.053-.245v-3.936a.246.246 0 0 1 .21-.244l3.22-.468a1 1 0 0 0-.287-1.98Z"/>
</svg>