<svg xmlns="http://www.w3.org/2000/svg" viewBox="0 0 512 512"><rect width="462" height="315" y="73.5" fill="#fff" rx="17.5" ry="17.5"/><path fill="#e8efff" d="M20 111a17.52 17.52 0 0 1 17.5-17.5H462V91a17.52 17.52 0 0 0-17.5-17.5h-427A17.52 17.52 0 0 0 0 91v280a17.52 17.52 0 0 0 17.5 17.5H20zm259.5 202.5h-67a22.5 22.5 0 0 0 0 45h67a22.5 22.5 0 0 0 0-45z"/><rect width="135" height="115" x="30" y="243.5" fill="#e8efff" rx="17.5" ry="17.5"/><rect width="272" height="55" x="30" y="163.5" fill="#e8efff" rx="17.5" ry="17.5"/><path fill="#f4a42b" d="M289.5 303.5h-67a22.5 22.5 0 0 0 0 45h67a22.5 22.5 0 0 0 0-45Z"/><path fill="#e59123" d="M289.5 303.5h-67a22.52 22.52 0 0 0-20.1 12.4 22.41 22.41 0 0 1 10.1-2.4h67a22.49 22.49 0 0 1 20.1 32.6 22.5 22.5 0 0 0-10.1-42.6Z"/><rect width="135" height="115" x="40" y="233.5" fill="#48c5a1" rx="17.5" ry="17.5"/><path fill="#3aaf88" d="M157.5 233.5h-100a17.54 17.54 0 0 0-16.31 11.19 17.43 17.43 0 0 1 6.31-1.19h100A17.52 17.52 0 0 1 165 261v80a17.43 17.43 0 0 1-1.19 6.31A17.54 17.54 0 0 0 175 331v-80a17.52 17.52 0 0 0-17.5-17.5Z"/><rect width="272" height="55" x="40" y="153.5" fill="#f4a42b" rx="17.5" ry="17.5"/><path fill="#e59123" d="M294.5 153.5h-237a17.54 17.54 0 0 0-16.31 11.19 17.43 17.43 0 0 1 6.31-1.19h237A17.52 17.52 0 0 1 302 181v20a17.43 17.43 0 0 1-1.19 6.31A17.54 17.54 0 0 0 312 191v-20a17.52 17.52 0 0 0-17.5-17.5Z"/><path fill="#3d58ff" d="M462 128.5V91a17.52 17.52 0 0 0-17.5-17.5h-427A17.52 17.52 0 0 0 0 91v37.5Z"/><path fill="#3146cc" d="M20 111a17.52 17.52 0 0 1 17.5-17.5H462V91a17.52 17.52 0 0 0-17.5-17.5h-427A17.52 17.52 0 0 0 0 91v37.5h20Z"/><path fill="#8397cc" d="M304.5 248.5h-97a7.5 7.5 0 0 1 0-15h97a7.5 7.5 0 0 1 0 15zm0 40h-97a7.5 7.5 0 0 1 0-15h97a7.5 7.5 0 0 1 0 15z"/><path fill="#e8efff" d="M344.5 143.5A17.52 17.52 0 0 0 327 161v227.75h117.5a17.52 17.52 0 0 0 17.5-17.5V143.5Z"/><rect width="175" height="285" x="337" y="153.5" fill="#3d58ff" rx="17.5" ry="17.5"/><path fill="#3146cc" d="M494.5 153.5h-140A17.52 17.52 0 0 0 337 171v2.5h137.5A17.52 17.52 0 0 1 492 191v247.5h2.5A17.52 17.52 0 0 0 512 421V171a17.52 17.52 0 0 0-17.5-17.5Z"/><rect width="65" height="55" x="357" y="263.5" fill="#3146cc" rx="17.5" ry="17.5"/><rect width="115" height="55" x="357" y="193.5" fill="#3146cc" rx="17.5" ry="17.5"/><rect width="65" height="55" x="367" y="253.5" fill="#48c5a1" rx="17.5" ry="17.5"/><path fill="#3aaf88" d="M414.5 253.5h-30a17.54 17.54 0 0 0-16.31 11.19 17.43 17.43 0 0 1 6.31-1.19h30A17.52 17.52 0 0 1 422 281v20a17.43 17.43 0 0 1-1.19 6.31A17.54 17.54 0 0 0 432 291v-20a17.52 17.52 0 0 0-17.5-17.5Z"/><rect width="115" height="55" x="367" y="183.5" fill="#f65d6d" rx="17.5" ry="17.5"/><path fill="#e25065" d="M464.5 183.5h-80a17.54 17.54 0 0 0-16.31 11.19 17.43 17.43 0 0 1 6.31-1.19h80A17.52 17.52 0 0 1 472 211v20a17.43 17.43 0 0 1-1.19 6.31A17.54 17.54 0 0 0 482 221v-20a17.52 17.52 0 0 0-17.5-17.5Z"/><path fill="#fff" d="M337 393.75V421a17.52 17.52 0 0 0 17.5 17.5h140A17.52 17.52 0 0 0 512 421v-27.25Z"/><path fill="#e8efff" d="M492 393.75v44.75h2.5A17.52 17.52 0 0 0 512 421v-27.25Z"/><path fill="#fff" d="M474.5 338.5h-100a7.5 7.5 0 0 1 0-15h100a7.5 7.5 0 0 1 0 15zm0 30h-100a7.5 7.5 0 0 1 0-15h100a7.5 7.5 0 0 1 0 15zm0-100h-20a7.5 7.5 0 0 1 0-15h20a7.5 7.5 0 0 1 0 15zm0 40h-20a7.5 7.5 0 0 1 0-15h20a7.5 7.5 0 0 1 0 15z"/></svg>